<svg xmlns="http://www.w3.org/2000/svg" xmlns:xlink="http://www.w3.org/1999/xlink" viewBox="0 0 145.08 142.67"><defs><style>.cls-1{fill:#fff;}.cls-2{fill:#030523;}.cls-3{fill:url(#linear-gradient);}.cls-4{fill:url(#linear-gradient-2);}.cls-5{fill:url(#linear-gradient-3);}.cls-6{fill:url(#linear-gradient-4);}.cls-7{fill:url(#linear-gradient-5);}</style><linearGradient id="linear-gradient" x1="72.54" y1="15.21" x2="72.54" y2="111.79" gradientUnits="userSpaceOnUse"><stop offset="0" stop-color="#152948"/><stop offset="1" stop-color="#0e1548"/></linearGradient><linearGradient id="linear-gradient-2" x1="72.54" y1="15.28" x2="72.54" y2="95.8" gradientUnits="userSpaceOnUse"><stop offset="0" stop-color="#274d6d"/><stop offset="1" stop-color="#1a246e"/></linearGradient><linearGradient id="linear-gradient-3" x1="72.54" y1="15.31" x2="72.54" y2="87.68" gradientUnits="userSpaceOnUse"><stop offset="0" stop-color="#3a7091"/><stop offset="1" stop-color="#253493"/></linearGradient><linearGradient id="linear-gradient-4" x1="72.54" y1="15.33" x2="72.54" y2="83.66" gradientUnits="userSpaceOnUse"><stop offset="0" stop-color="#4c94b6"/><stop offset="1" stop-color="#3143b9"/></linearGradient><linearGradient id="linear-gradient-5" x1="72.54" y1="15.34" x2="72.54" y2="81.29" gradientUnits="userSpaceOnUse"><stop offset="0" stop-color="#5eb8db"/><stop offset="1" stop-color="#3c53de"/></linearGradient></defs><title>TheiaIcon_OnBlack</title><g id="Layer_2" data-name="Layer 2"><g id="Layer_2-2" data-name="Layer 2"><polygon class="cls-1" points="145.08 142.67 114.97 142.67 114.97 134.53 136.94 134.53 136.94 113.77 145.08 113.77 145.08 142.67"/><polygon class="cls-1" points="8.14 28.9 0 28.9 0 0 30.11 0 30.11 8.14 8.14 8.14 8.14 28.9"/><ellipse class="cls-2" cx="72.54" cy="71.33" rx="57.32" ry="55.69"/><path class="cls-3" d="M129.86,71.33c0-30.76-25.67-55.69-57.32-55.69S15.22,40.57,15.22,71.33s25.66,38.8,57.32,38.8S129.86,102.09,129.86,71.33Z"/><path class="cls-4" d="M129.86,71.33c0-30.76-25.67-55.69-57.32-55.69S15.22,40.57,15.22,71.33s25.66,21.9,57.32,21.9S129.86,102.09,129.86,71.33Z"/><path class="cls-5" d="M129.86,71.33c0-30.76-25.67-55.69-57.32-55.69S15.22,40.57,15.22,71.33s25.66,5,57.32,5S129.86,102.09,129.86,71.33Z"/><path class="cls-6" d="M129.86,71.33c0-30.76-25.67-55.69-57.32-55.69S15.22,40.57,15.22,71.33,40.88,59.44,72.54,59.44,129.86,102.09,129.86,71.33Z"/><path class="cls-7" d="M129.86,71.33c0-30.76-25.67-55.69-57.32-55.69S15.22,40.57,15.22,71.33,40.88,42.55,72.54,42.55,129.86,102.09,129.86,71.33Z"/></g></g></svg>