<svg xmlns="http://www.w3.org/2000/svg" xmlns:xlink="http://www.w3.org/1999/xlink" viewBox="0 0 303.6 287.23"><defs><style>.cls-1{fill:url(#linear-gradient);}.cls-2{fill:url(#linear-gradient-2);}.cls-3{fill:url(#linear-gradient-3);}.cls-4{fill:url(#linear-gradient-4);}.cls-5{fill:url(#linear-gradient-5);}.cls-6{fill:url(#linear-gradient-6);}.cls-7{fill:url(#linear-gradient-7);}.cls-8{fill:url(#linear-gradient-8);}</style><linearGradient id="linear-gradient" x1="23.17" y1="24.78" x2="276.3" y2="260.52" gradientUnits="userSpaceOnUse"><stop offset="0" stop-color="#3bc2fb"/><stop offset="0.99" stop-color="#e792fb"/></linearGradient><linearGradient id="linear-gradient-2" x1="120.98" y1="-80.24" x2="374.11" y2="155.5" xlink:href="#linear-gradient"/><linearGradient id="linear-gradient-3" x1="24.12" y1="23.76" x2="277.25" y2="259.5" gradientTransform="translate(514.16 481.42) rotate(180)" xlink:href="#linear-gradient"/><linearGradient id="linear-gradient-4" x1="-73.68" y1="128.78" x2="179.45" y2="364.51" gradientTransform="translate(93.03 481.42) rotate(180)" xlink:href="#linear-gradient"/><linearGradient id="linear-gradient-5" x1="72.16" y1="-27.82" x2="325.29" y2="207.92" xlink:href="#linear-gradient"/><linearGradient id="linear-gradient-6" x1="73.04" y1="-28.77" x2="326.17" y2="206.97" xlink:href="#linear-gradient"/><linearGradient id="linear-gradient-7" x1="-22.87" y1="74.22" x2="230.26" y2="309.95" xlink:href="#linear-gradient"/><linearGradient id="linear-gradient-8" x1="-25.98" y1="77.56" x2="227.15" y2="313.3" xlink:href="#linear-gradient"/></defs><title>flow_1@</title><g id="Layer_2" data-name="Layer 2"><g id="Layer_2-2" data-name="Layer 2"><rect class="cls-1" width="93.03" height="93.03" rx="25.59"/><rect class="cls-2" x="210.57" width="93.03" height="93.03" rx="46.52"/><rect class="cls-3" x="210.57" y="194.2" width="93.03" height="93.03" rx="25.59" transform="translate(514.16 481.42) rotate(-180)"/><rect class="cls-4" y="194.2" width="93.03" height="93.03" rx="46.52" transform="translate(93.03 481.42) rotate(-180)"/><path class="cls-5" d="M190.18,43.62l-15.8-9.12A3.61,3.61,0,0,0,169,37.63v2.61H119.14a3.22,3.22,0,0,0-3.22,3.21v6.68a3.22,3.22,0,0,0,3.22,3.22H169v2.52A3.61,3.61,0,0,0,174.38,59l15.8-9.12A3.61,3.61,0,0,0,190.18,43.62Z"/><path class="cls-6" d="M260.21,180.31l9.12-15.8a3.61,3.61,0,0,0-3.13-5.42h-2.61V109.26a3.21,3.21,0,0,0-3.21-3.21H253.7a3.22,3.22,0,0,0-3.22,3.21v49.83H248a3.61,3.61,0,0,0-3.13,5.42l9.12,15.8A3.61,3.61,0,0,0,260.21,180.31Z"/><path class="cls-7" d="M118,243.84,133.77,253a3.6,3.6,0,0,0,5.41-3.12v-2.62H189a3.21,3.21,0,0,0,3.21-3.21v-6.68a3.22,3.22,0,0,0-3.21-3.22H139.18v-2.52a3.61,3.61,0,0,0-5.41-3.13L118,237.58A3.62,3.62,0,0,0,118,243.84Z"/><path class="cls-8" d="M43.39,107.39l-9.13,15.8a3.61,3.61,0,0,0,3.13,5.42H40v49.82a3.21,3.21,0,0,0,3.21,3.22H49.9a3.22,3.22,0,0,0,3.21-3.22V128.61h2.53a3.61,3.61,0,0,0,3.13-5.42l-9.13-15.8A3.61,3.61,0,0,0,43.39,107.39Z"/></g></g></svg>