<svg viewBox="-250 0 1000 1000" xmlns="http://www.w3.org/2000/svg" xmlns:xlink="http://www.w3.org/1999/xlink"><linearGradient id="a" gradientUnits="userSpaceOnUse" x1="508.01" x2="228.34" y1="40.95" y2="1263.43"><stop offset="0" stop-color="#3bc2fb"/><stop offset=".99" stop-color="#e792fb"/></linearGradient><linearGradient id="b" x1="501.52" x2="221.85" xlink:href="#a" y1="39.46" y2="1261.94"/><linearGradient id="c" x1="438.93" x2="159.26" xlink:href="#a" y1="25.15" y2="1247.63"/><linearGradient id="d" x1="432.45" x2="152.78" xlink:href="#a" y1="23.66" y2="1246.14"/><linearGradient id="e" x1="183.08" x2="-96.59" xlink:href="#a" y1="-33.39" y2="1189.1"/><linearGradient id="f" x1="256.58" x2="-23.1" xlink:href="#a" y1="-16.57" y2="1205.91"/><linearGradient id="g" x1="305.87" x2="26.2" xlink:href="#a" y1="-5.3" y2="1217.18"/><linearGradient id="h" x1="379.36" x2="99.69" xlink:href="#a" y1="11.52" y2="1234"/><path d="m281.45 846.7c27.81 9.52 52.36 15.59 87.64 26.43-13.56 171.23-175.48 103.23-87.64-26.43z" fill="url(#a)"/><path d="m426 689.4c-1.8-51.4-10.86-118.86-83-108.3-33.82 8.83-58.8 46-70.55 110-6.46 35.23-2.7 84.68 4.91 114.32 6.95 20.89 4.59 19.6 12.06 23.57 28.91 6.52 57.54 13.73 86.69 21.08 29.62-20.87 53.95-131.9 49.89-160.67z" fill="url(#b)"/><path d="m341.45 266.7c27.81 9.52 52.36 15.59 87.64 26.43-13.56 171.23-175.48 103.23-87.64-26.43z" fill="url(#c)"/><path d="m486 109.4c-1.8-51.4-10.86-118.86-83-108.3-33.82 8.83-58.8 46-70.55 110-6.46 35.23-2.7 84.68 4.91 114.32 6.95 20.89 4.59 19.6 12.06 23.57 28.91 6.52 57.54 13.73 86.69 21.08 29.62-20.87 53.95-131.9 49.89-160.67z" fill="url(#d)"/><path d="m160.41 461.45c7.61-29.65 11.36-79.09 4.91-114.32-11.74-64.08-36.73-101.22-70.55-110-72.14-10.57-81.19 56.88-83 108.3-4 28.76 20.3 139.8 49.91 160.71 29.15-7.36 57.77-14.56 86.7-21.08 7.44-4 5.08-2.72 12.03-23.61z" fill="url(#e)"/><path d="m68.69 529.12c13.54 171.23 175.47 103.23 87.63-26.43-27.81 9.53-52.32 15.59-87.63 26.43z" fill="url(#f)"/><path d="m149.1 1075.69c7.6-29.64 11.36-79.09 4.91-114.32-11.75-64.07-36.73-101.21-70.55-110-72.14-10.57-81.2 56.87-83 108.29-4 28.77 20.29 139.8 49.91 160.71 29.15-7.35 57.77-14.56 86.7-21.08 7.44-3.99 5.07-2.71 12.03-23.6z" fill="url(#g)"/><path d="m57.37 1143.36c13.55 171.24 175.47 103.23 87.63-26.42-27.8 9.52-52.35 15.58-87.63 26.42z" fill="url(#h)"/></svg>