<svg viewBox="0 -65.38 348.06 348.06" xmlns="http://www.w3.org/2000/svg" xmlns:xlink="http://www.w3.org/1999/xlink"><linearGradient id="a" gradientUnits="userSpaceOnUse" x1="174.03" x2="174.03" y1="3.81" y2="217.02"><stop offset="0" stop-color="#3bc2fb"/><stop offset=".51" stop-color="#92aafb"/><stop offset=".99" stop-color="#e792fb"/></linearGradient><path d="m213.18 4a194.14 194.14 0 0 0 -32.86-3.9c-1.6 0-3.21-.08-4.82-.09h-3.26a194.28 194.28 0 0 0 -37.15 3.84l-.22.11a194 194 0 0 0 -134.87 104.68 193.64 193.64 0 0 0 172.24 108.64h3.26a193.63 193.63 0 0 0 172.56-108.64 194 194 0 0 0 -134.88-104.64zm-72.48 38.4a33 33 0 1 1 -33 33 33 33 0 0 1 33-33zm121.23 118.52a162.39 162.39 0 0 1 -86.66 25.7h-2.79a162.33 162.33 0 0 1 -86.48-25.76 163.68 163.68 0 0 1 -51.09-52.21 163.46 163.46 0 0 1 56.8-55.65 87.26 87.26 0 1 0 164.64 0 163.55 163.55 0 0 1 56.77 55.7 163.68 163.68 0 0 1 -51.19 52.22z" fill="url(#a)"/></svg>