<svg viewBox="0 0 303.6 287.23" xmlns="http://www.w3.org/2000/svg" xmlns:xlink="http://www.w3.org/1999/xlink"><linearGradient id="a" gradientUnits="userSpaceOnUse" x1="23.17" x2="276.3" y1="24.78" y2="260.52"><stop offset="0" stop-color="#3bc2fb"/><stop offset=".99" stop-color="#e792fb"/></linearGradient><linearGradient id="b" x1="120.98" x2="374.11" xlink:href="#a" y1="-80.24" y2="155.5"/><linearGradient id="c" gradientTransform="matrix(-1 0 0 -1 514.16 481.42)" x1="24.12" x2="277.25" xlink:href="#a" y1="23.76" y2="259.5"/><linearGradient id="d" gradientTransform="matrix(-1 0 0 -1 93.03 481.42)" x1="-73.68" x2="179.45" xlink:href="#a" y1="128.78" y2="364.51"/><linearGradient id="e" x1="72.16" x2="325.29" xlink:href="#a" y1="-27.82" y2="207.92"/><linearGradient id="f" x1="73.04" x2="326.17" xlink:href="#a" y1="-28.77" y2="206.97"/><linearGradient id="g" x1="-22.87" x2="230.26" xlink:href="#a" y1="74.22" y2="309.95"/><linearGradient id="h" x1="-25.98" x2="227.15" xlink:href="#a" y1="77.56" y2="313.3"/><rect fill="url(#a)" height="93.03" rx="25.59" width="93.03"/><rect fill="url(#b)" height="93.03" rx="46.52" width="93.03" x="210.57"/><rect fill="url(#c)" height="93.03" rx="25.59" transform="matrix(-1 0 0 -1 514.16 481.42)" width="93.03" x="210.57" y="194.2"/><rect fill="url(#d)" height="93.03" rx="46.52" transform="matrix(-1 0 0 -1 93.03 481.42)" width="93.03" y="194.2"/><path d="m190.18 43.62-15.8-9.12a3.61 3.61 0 0 0 -5.38 3.13v2.61h-49.86a3.22 3.22 0 0 0 -3.22 3.21v6.68a3.22 3.22 0 0 0 3.22 3.22h49.86v2.52a3.61 3.61 0 0 0 5.38 3.13l15.8-9.12a3.61 3.61 0 0 0 0-6.26z" fill="url(#e)"/><path d="m260.21 180.31 9.12-15.8a3.61 3.61 0 0 0 -3.13-5.42h-2.61v-49.83a3.21 3.21 0 0 0 -3.21-3.21h-6.68a3.22 3.22 0 0 0 -3.22 3.21v49.83h-2.48a3.61 3.61 0 0 0 -3.13 5.42l9.12 15.8a3.61 3.61 0 0 0 6.22 0z" fill="url(#f)"/><path d="m118 243.84 15.77 9.16a3.6 3.6 0 0 0 5.41-3.12v-2.62h49.82a3.21 3.21 0 0 0 3.21-3.21v-6.68a3.22 3.22 0 0 0 -3.21-3.22h-49.82v-2.52a3.61 3.61 0 0 0 -5.41-3.13l-15.77 9.08a3.62 3.62 0 0 0 0 6.26z" fill="url(#g)"/><path d="m43.39 107.39-9.13 15.8a3.61 3.61 0 0 0 3.13 5.42h2.61v49.82a3.21 3.21 0 0 0 3.21 3.22h6.69a3.22 3.22 0 0 0 3.21-3.22v-49.82h2.53a3.61 3.61 0 0 0 3.13-5.42l-9.13-15.8a3.61 3.61 0 0 0 -6.25 0z" fill="url(#h)"/></svg>