<svg xmlns="http://www.w3.org/2000/svg" xmlns:xlink="http://www.w3.org/1999/xlink" viewBox="0 0 342.83 142.67"><defs><style>.cls-1{fill:#030523;}.cls-2{fill:url(#linear-gradient);}.cls-3{fill:url(#linear-gradient-2);}.cls-4{fill:url(#linear-gradient-3);}.cls-5{fill:url(#linear-gradient-4);}.cls-6{fill:url(#linear-gradient-5);}.cls-7{fill:url(#linear-gradient-6);}.cls-8{fill:url(#linear-gradient-7);}.cls-9{fill:url(#linear-gradient-8);}.cls-10{fill:url(#linear-gradient-10);}.cls-11{fill:url(#linear-gradient-11);}.cls-12{fill:url(#linear-gradient-12);}</style><linearGradient id="linear-gradient" x1="72.54" y1="15.21" x2="72.54" y2="111.79" gradientUnits="userSpaceOnUse"><stop offset="0" stop-color="#152948"/><stop offset="1" stop-color="#0e1548"/></linearGradient><linearGradient id="linear-gradient-2" x1="72.54" y1="15.28" x2="72.54" y2="95.8" gradientUnits="userSpaceOnUse"><stop offset="0" stop-color="#274d6d"/><stop offset="1" stop-color="#1a246e"/></linearGradient><linearGradient id="linear-gradient-3" x1="72.54" y1="15.31" x2="72.54" y2="87.68" gradientUnits="userSpaceOnUse"><stop offset="0" stop-color="#3a7091"/><stop offset="1" stop-color="#253493"/></linearGradient><linearGradient id="linear-gradient-4" x1="72.54" y1="15.33" x2="72.54" y2="83.66" gradientUnits="userSpaceOnUse"><stop offset="0" stop-color="#4c94b6"/><stop offset="1" stop-color="#3143b9"/></linearGradient><linearGradient id="linear-gradient-5" x1="72.54" y1="15.34" x2="72.54" y2="81.29" gradientUnits="userSpaceOnUse"><stop offset="0" stop-color="#5eb8db"/><stop offset="1" stop-color="#3c53de"/></linearGradient><linearGradient id="linear-gradient-6" x1="3.43" y1="97.66" x2="274.98" y2="97.66" xlink:href="#linear-gradient-5"/><linearGradient id="linear-gradient-7" x1="3.43" y1="100.98" x2="274.98" y2="100.98" xlink:href="#linear-gradient-5"/><linearGradient id="linear-gradient-8" x1="3.43" y1="101.27" x2="274.98" y2="101.27" xlink:href="#linear-gradient-5"/><linearGradient id="linear-gradient-10" x1="3.43" y1="104.97" x2="274.98" y2="104.97" xlink:href="#linear-gradient-5"/><linearGradient id="linear-gradient-11" x1="3.43" y1="98.77" x2="274.98" y2="98.77" xlink:href="#linear-gradient-5"/><linearGradient id="linear-gradient-12" x1="3.43" y1="96.58" x2="274.98" y2="96.58" xlink:href="#linear-gradient-5"/></defs><title>TheiaLogo_InWhite</title><g id="Layer_2" data-name="Layer 2"><g id="Layer_2-2" data-name="Layer 2"><polygon class="cls-1" points="145.08 142.67 114.97 142.67 114.97 134.53 136.94 134.53 136.94 113.77 145.08 113.77 145.08 142.67"/><polygon class="cls-1" points="8.14 28.9 0 28.9 0 0 30.11 0 30.11 8.14 8.14 8.14 8.14 28.9"/><ellipse class="cls-1" cx="72.54" cy="71.33" rx="57.32" ry="55.69"/><path class="cls-2" d="M129.86,71.33c0-30.76-25.67-55.69-57.32-55.69S15.22,40.57,15.22,71.33s25.66,38.8,57.32,38.8S129.86,102.09,129.86,71.33Z"/><path class="cls-3" d="M129.86,71.33c0-30.76-25.67-55.69-57.32-55.69S15.22,40.57,15.22,71.33s25.66,21.9,57.32,21.9S129.86,102.09,129.86,71.33Z"/><path class="cls-4" d="M129.86,71.33c0-30.76-25.67-55.69-57.32-55.69S15.22,40.57,15.22,71.33s25.66,5,57.32,5S129.86,102.09,129.86,71.33Z"/><path class="cls-5" d="M129.86,71.33c0-30.76-25.67-55.69-57.32-55.69S15.22,40.57,15.22,71.33,40.88,59.44,72.54,59.44,129.86,102.09,129.86,71.33Z"/><path class="cls-6" d="M129.86,71.33c0-30.76-25.67-55.69-57.32-55.69S15.22,40.57,15.22,71.33,40.88,42.55,72.54,42.55,129.86,102.09,129.86,71.33Z"/><path class="cls-1" d="M212.57,36.34H199.75v37.3h-10V36.34H177V28.07h35.6Z"/><path class="cls-1" d="M226.05,43.24a12.15,12.15,0,0,1,10.15-5.08c7.49,0,11.72,4.82,11.72,13.09V73.64h-9.51V53.72c0-4.75-1.17-7.62-5.4-7.62-4,0-7,3.45-7,8.47V73.64h-9.51V28.07h9.51Z"/><path class="cls-1" d="M286.65,56.78V58.6H262.56c.33,5.73,3.45,8.59,8.4,8.59a8.45,8.45,0,0,0,7.81-4.55l7.62,3.71c-3.32,5.21-8.47,8.2-15.89,8.2-11.06,0-17.7-7.75-17.7-18.23S259,38.16,269.92,38.16C280.4,38.16,286.65,45.65,286.65,56.78Zm-24.09-4.23H277c-.33-5.14-2.93-7.49-7.1-7.49S263,47.47,262.56,52.55Z"/><path class="cls-1" d="M302,28.59a5.6,5.6,0,0,1-11.19,0,5.6,5.6,0,0,1,11.19,0Zm-.84,45.05h-9.5V39.07h9.5Z"/><path class="cls-1" d="M337.22,49V66.09a19.49,19.49,0,0,0,1.17,7.55H329a13.13,13.13,0,0,1-1-3.52c-2.54,3.32-6.31,4.43-10.15,4.43-7.36,0-11.59-4.43-11.59-10.61,0-6.51,4-10.48,14.32-11.78l7.23-.91V49.68c0-3.64-1.11-4.88-5.21-4.88-3.91,0-5.47,1.3-5.6,4.56h-9.37c.26-7.55,5.86-11.2,15.16-11.2C333.18,38.16,337.22,42.13,337.22,49ZM322.83,58c-5,.72-7,2.15-7,5.08,0,2.47,1.5,4.16,4.69,4.16,3.9,0,7.16-2.66,7.16-6.5V57.3Z"/><path class="cls-7" d="M196.45,107h-12l-1.56,5h-4.79l9.5-28.67h6L203,112h-5ZM185.63,103h9.59l-4.79-15.89Z"/><path class="cls-8" d="M223.72,98.2V112h-4.51V99.71c0-3.6-.74-5.89-4-5.89-3,0-5.16,2.49-5.16,6.06V112h-4.51V90.54H210v2.74a7.42,7.42,0,0,1,6.3-3.31C221.09,90,223.72,93.08,223.72,98.2Z"/><path class="cls-9" d="M245.54,96.72v10.65a11.73,11.73,0,0,0,.74,4.63h-4.63a7.47,7.47,0,0,1-.57-2.3,8.07,8.07,0,0,1-6.51,2.87c-4.63,0-7.29-2.78-7.29-6.59s2.45-6.39,8.55-7.17L241,98.2V97.05c0-2.74-.86-3.64-4.18-3.64-3,0-4.26.94-4.34,3.39h-4.38C228.26,92.1,231.7,90,237,90,243.17,90,245.54,92.46,245.54,96.72Zm-8.44,5.2c-3.68.49-5.16,1.48-5.16,3.73,0,1.84,1,3.15,3.57,3.15,2.9,0,5.53-1.92,5.53-4.83v-2.54Z"/><path class="cls-7" d="M255,112h-4.51V83.33H255Z"/><path class="cls-10" d="M270.35,113.31c-1.19,3.72-2.78,6.1-7.61,6.1a11.89,11.89,0,0,1-2.62-.25v-3.44a12.84,12.84,0,0,0,1.76.09c3.07,0,3.72-1,4.42-3.81h-1.56l-7.25-21.46h5l5.32,18.06,5-18.06h4.71Z"/><path class="cls-11" d="M285.17,90.62h5.45V94h-5.45V106.1c0,1.8.62,2.7,2.62,2.7a12.45,12.45,0,0,0,3.32-.49v3.6a15.18,15.18,0,0,1-4.26.66c-4.58,0-6.18-2.37-6.18-5.81V94h-2.95v-3.4h2.95V85h4.5Z"/><path class="cls-12" d="M299.26,84a2.91,2.91,0,1,1-2.91-2.83A2.9,2.9,0,0,1,299.26,84Zm-.66,28h-4.5V90.54h4.5Z"/><path class="cls-9" d="M322.19,95.62l-3.93,1.59a5.2,5.2,0,0,0-5.08-3.44c-3.52,0-5.94,2.63-5.94,7.42s2.26,7.61,5.94,7.61c3.19,0,4.55-1.92,5.45-4.17l4,1.68a10.05,10.05,0,0,1-9.58,6.26c-6.68,0-10.49-4.79-10.49-11.3S306.55,90,313,90A9.65,9.65,0,0,1,322.19,95.62Z"/><path class="cls-9" d="M342.38,93.24l-2.63,2.7a8.79,8.79,0,0,0-6.06-2.33c-2.66,0-4.09,1-4.09,2.58s1.11,2.25,5.32,3c5.16.82,7.91,2.54,7.91,6.67s-3.28,6.76-9.3,6.76c-4.34,0-7.66-1.43-9.83-3.77l2.79-2.82a9.26,9.26,0,0,0,6.88,2.9c3.31,0,4.83-1.14,4.83-2.86s-.82-2.5-5.82-3.28-7.33-2.86-7.33-6.3c0-4.06,3.53-6.47,8.6-6.47A12.08,12.08,0,0,1,342.38,93.24Z"/></g></g></svg>